<?xml version="1.0" standalone="no"?><!DOCTYPE svg PUBLIC "-//W3C//DTD SVG 1.1//EN" "http://www.w3.org/Graphics/SVG/1.1/DTD/svg11.dtd"><svg t="1684826515782" class="icon" viewBox="0 0 1024 1024" version="1.1" xmlns="http://www.w3.org/2000/svg" p-id="5239" xmlns:xlink="http://www.w3.org/1999/xlink" width="200" height="200"><path d="M877.216 491.808M895.904 448c0-212.064-171.936-384-384-384-212.064 0-384 171.936-384 384 0 104.672 42.016 199.456 109.92 268.736L237.664 716.736l1.568 1.568c0.768 0.768 1.536 1.568 2.336 2.336l217.12 217.12c29.376 29.376 76.992 29.376 106.368 0l217.12-217.12c0.768-0.768 1.568-1.536 2.336-2.336l1.568-1.568-0.16 0C853.888 647.456 895.904 552.672 895.904 448zM565.088 847.36c-53.12 53.12-53.152 53.248-106.368 0L285.76 673.472C228 615.648 191.904 536.224 191.904 448c0-176.736 143.264-320 320-320 176.736 0 320 143.264 320 320 0 88.224-36.096 167.648-93.856 225.472L565.088 847.36zM512 256c-106.048 0-192 85.952-192 192s85.952 192 192 192 192-85.952 192-192S618.048 256 512 256zM512 576c-70.688 0-128-57.312-128-128s57.312-128 128-128 128 57.312 128 128S582.688 576 512 576z" fill="#272636" p-id="5240"></path></svg>